<svg xmlns="http://www.w3.org/2000/svg" viewBox="0 0 2424 1728" width="2424" height="1728" font-family="Georgia, 'Iowan Old Style', 'Times New Roman', serif">
<title>Player Board — Elves</title>
<desc>One per player. The character card top left, the five tracks up the middle, four cards of kit on the right, and the round's phases under the character. The mana track is an arcane subject and is the only thing on the board that takes the slip. Generated by tools/build-board.mjs from data/playerboard.json and data/components.json — do not edit. 297 x 210 mm at 8 units/mm, 3 mm bleed. The ink plate alone is the black-and-white edition.</desc>
<defs>
  <pattern id="player-hatch" width="4.8" height="4.8" patternUnits="userSpaceOnUse" patternTransform="rotate(45)"><path d="M 2.4,0 V 4.8" stroke="#1A1714" stroke-width="1.2" fill="none"/></pattern>
  <clipPath id="sheet"><rect x="24" y="24" width="2376" height="1680" rx="48" /></clipPath>
</defs>

<!-- ============================================================ WASH -->
<g id="wash">
  <rect x="0" y="0" width="2424" height="1728" fill="#EDE4D1"/>
  <path d="M 72,56 H 2352 A 16,16 0 0 1 2368,72 V 1656 A 16,16 0 0 1 2352,1672 H 72 A 16,16 0 0 1 56,1656 V 72 A 16,16 0 0 1 72,56 Z M 88,88 H 2336 A 0,0 0 0 1 2336,88 V 1640 A 0,0 0 0 1 2336,1640 H 88 A 0,0 0 0 1 88,1640 V 88 A 0,0 0 0 1 88,88 Z" fill-rule="evenodd" fill="#4C7A61" opacity="0.55"/>
  <rect x="742.4" y="240" width="73.6" height="1296" fill="#A33B26" opacity="0.26"/>
  <rect x="828.8" y="240" width="73.6" height="1296" fill="#3C5A6E" opacity="0.26"/>
  <rect x="915.2" y="240" width="73.6" height="1296" fill="#4C7A61" opacity="0.26"/>
  <rect x="1001.6" y="240" width="73.6" height="1296" fill="#A33B26" opacity="0.26"/>
  <rect x="1088" y="240" width="73.6" height="1296" fill="#6B4C7D" opacity="0.26"/>
</g>

<!-- ============================================================ SLIP -->
<!-- The arcane exception, and the only one on the board: the mana column's wash
     struck a shade out of register, bleeding past the ink line on one side. In
     the black-and-white edition there is no slip and nothing is lost. -->
<g id="slip">
  <rect x="1095.2" y="232.8" width="73.6" height="1296" fill="#6B4C7D" opacity="0.3"/>
</g>

<!-- ============================================================ INK -->
<g id="ink" fill="#1A1714">
  <g clip-path="url(#sheet)">
    <g fill="none" opacity="0.5">
    <path d="M 24,232 H 2400" stroke="#C0B7A9" stroke-width="1.1"/>
    <path d="M 24,72.59 Q 1212,80.61 2400,72.59" stroke="#D8CEBE" stroke-width="0.7"/>
    <path d="M 24,104.82 Q 1212,101.14 2400,104.82" stroke="#D8CEBE" stroke-width="0.7"/>
    <path d="M 24,151.03 Q 1212,152.31 2400,151.03" stroke="#D8CEBE" stroke-width="0.7"/>
    <path d="M 24,194.19 Q 1212,201.18 2400,194.19" stroke="#D8CEBE" stroke-width="0.7"/>
    <path d="M 24,440 H 2400" stroke="#C0B7A9" stroke-width="1.1"/>
    <path d="M 24,277.97 Q 1212,282.09 2400,277.97" stroke="#D8CEBE" stroke-width="0.7"/>
    <path d="M 24,315.39 Q 1212,317.51 2400,315.39" stroke="#D8CEBE" stroke-width="0.7"/>
    <path d="M 24,361.96 Q 1212,357.64 2400,361.96" stroke="#D8CEBE" stroke-width="0.7"/>
    <path d="M 24,408.25 Q 1212,406.88 2400,408.25" stroke="#D8CEBE" stroke-width="0.7"/>
    <path d="M 24,648 H 2400" stroke="#C0B7A9" stroke-width="1.1"/>
    <path d="M 24,483.67 Q 1212,491.18 2400,483.67" stroke="#D8CEBE" stroke-width="0.7"/>
    <path d="M 24,518.31 Q 1212,520.71 2400,518.31" stroke="#D8CEBE" stroke-width="0.7"/>
    <path d="M 24,568.61 Q 1212,571.94 2400,568.61" stroke="#D8CEBE" stroke-width="0.7"/>
    <path d="M 24,622.96 Q 1212,617.33 2400,622.96" stroke="#D8CEBE" stroke-width="0.7"/>
    <path d="M 24,856 H 2400" stroke="#C0B7A9" stroke-width="1.1"/>
    <path d="M 24,675.9 Q 1212,667.51 2400,675.9" stroke="#D8CEBE" stroke-width="0.7"/>
    <path d="M 24,742.72 Q 1212,743.69 2400,742.72" stroke="#D8CEBE" stroke-width="0.7"/>
    <path d="M 24,781.29 Q 1212,781.55 2400,781.29" stroke="#D8CEBE" stroke-width="0.7"/>
    <path d="M 24,817.28 Q 1212,821.16 2400,817.28" stroke="#D8CEBE" stroke-width="0.7"/>
    <path d="M 24,1064 H 2400" stroke="#C0B7A9" stroke-width="1.1"/>
    <path d="M 24,899.93 Q 1212,905.41 2400,899.93" stroke="#D8CEBE" stroke-width="0.7"/>
    <path d="M 24,935.1 Q 1212,929.29 2400,935.1" stroke="#D8CEBE" stroke-width="0.7"/>
    <path d="M 24,981.06 Q 1212,979.25 2400,981.06" stroke="#D8CEBE" stroke-width="0.7"/>
    <path d="M 24,1023.38 Q 1212,1028.35 2400,1023.38" stroke="#D8CEBE" stroke-width="0.7"/>
    <path d="M 24,1272 H 2400" stroke="#C0B7A9" stroke-width="1.1"/>
    <path d="M 24,1092.31 Q 1212,1099.67 2400,1092.31" stroke="#D8CEBE" stroke-width="0.7"/>
    <path d="M 24,1140.92 Q 1212,1137.08 2400,1140.92" stroke="#D8CEBE" stroke-width="0.7"/>
    <path d="M 24,1201.38 Q 1212,1209.87 2400,1201.38" stroke="#D8CEBE" stroke-width="0.7"/>
    <path d="M 24,1243.33 Q 1212,1241.27 2400,1243.33" stroke="#D8CEBE" stroke-width="0.7"/>
    <path d="M 24,1480 H 2400" stroke="#C0B7A9" stroke-width="1.1"/>
    <path d="M 24,1310.22 Q 1212,1313.11 2400,1310.22" stroke="#D8CEBE" stroke-width="0.7"/>
    <path d="M 24,1348.51 Q 1212,1356.32 2400,1348.51" stroke="#D8CEBE" stroke-width="0.7"/>
    <path d="M 24,1396.41 Q 1212,1390.23 2400,1396.41" stroke="#D8CEBE" stroke-width="0.7"/>
    <path d="M 24,1435 Q 1212,1438.83 2400,1435" stroke="#D8CEBE" stroke-width="0.7"/>
    <path d="M 24,1688 H 2400" stroke="#C0B7A9" stroke-width="1.1"/>
    <path d="M 24,1521.28 Q 1212,1516.48 2400,1521.28" stroke="#D8CEBE" stroke-width="0.7"/>
    <path d="M 24,1560.51 Q 1212,1560.8 2400,1560.51" stroke="#D8CEBE" stroke-width="0.7"/>
    <path d="M 24,1615.88 Q 1212,1617.43 2400,1615.88" stroke="#D8CEBE" stroke-width="0.7"/>
    <path d="M 24,1657.62 Q 1212,1664.21 2400,1657.62" stroke="#D8CEBE" stroke-width="0.7"/>
    <ellipse cx="870.48" cy="315.58" rx="10.4" ry="5.6" stroke="#C0B7A9" stroke-width="0.7"/>
    <ellipse cx="870.48" cy="315.58" rx="20.8" ry="11.2" stroke="#C0B7A9" stroke-width="0.7"/>
    <ellipse cx="1628.61" cy="919.87" rx="10.4" ry="5.6" stroke="#C0B7A9" stroke-width="0.7"/>
    <ellipse cx="1628.61" cy="919.87" rx="20.8" ry="11.2" stroke="#C0B7A9" stroke-width="0.7"/>
    <ellipse cx="442.44" cy="1130.2" rx="10.4" ry="5.6" stroke="#C0B7A9" stroke-width="0.7"/>
    <ellipse cx="442.44" cy="1130.2" rx="20.8" ry="11.2" stroke="#C0B7A9" stroke-width="0.7"/>
  </g>
  </g>
  <path d="M 72,56 H 2352 A 16,16 0 0 1 2368,72 V 1656 A 16,16 0 0 1 2352,1672 H 72 A 16,16 0 0 1 56,1656 V 72 A 16,16 0 0 1 72,56 Z M 88,88 H 2336 A 0,0 0 0 1 2336,88 V 1640 A 0,0 0 0 1 2336,1640 H 88 A 0,0 0 0 1 88,1640 V 88 A 0,0 0 0 1 88,88 Z" fill-rule="evenodd" fill="url(#player-hatch)" opacity="0.5"/>
  <g fill="none" stroke="#1A1714"><rect x="56" y="56" width="2312" height="1616" rx="16" stroke-width="5"/><rect x="88" y="88" width="2248" height="1552" rx="0" stroke-width="1.4"/></g>
  <g><path d="M 264,56 H 72 A 16,16 0 0 0 56,72 V 264 H 88 V 88 A 0,0 0 0 1 88,88 H 264 Z" fill="#EDE4D1" stroke="#1A1714" stroke-width="3" stroke-linejoin="round"/><g fill="#1A1714" stroke="none"><circle cx="210.24" cy="72" r="5"/><circle cx="72" cy="210.24" r="5"/><circle cx="96.2" cy="96.2" r="5"/></g></g><g transform="translate(2424 0) scale(-1 1)"><path d="M 264,56 H 72 A 16,16 0 0 0 56,72 V 264 H 88 V 88 A 0,0 0 0 1 88,88 H 264 Z" fill="#EDE4D1" stroke="#1A1714" stroke-width="3" stroke-linejoin="round"/><g fill="#1A1714" stroke="none"><circle cx="210.24" cy="72" r="5"/><circle cx="72" cy="210.24" r="5"/><circle cx="96.2" cy="96.2" r="5"/></g></g><g transform="translate(0 1728) scale(1 -1)"><path d="M 264,56 H 72 A 16,16 0 0 0 56,72 V 264 H 88 V 88 A 0,0 0 0 1 88,88 H 264 Z" fill="#EDE4D1" stroke="#1A1714" stroke-width="3" stroke-linejoin="round"/><g fill="#1A1714" stroke="none"><circle cx="210.24" cy="72" r="5"/><circle cx="72" cy="210.24" r="5"/><circle cx="96.2" cy="96.2" r="5"/></g></g><g transform="translate(2424 0) scale(-1 1) translate(0 1728) scale(1 -1)"><path d="M 264,56 H 72 A 16,16 0 0 0 56,72 V 264 H 88 V 88 A 0,0 0 0 1 88,88 H 264 Z" fill="#EDE4D1" stroke="#1A1714" stroke-width="3" stroke-linejoin="round"/><g fill="#1A1714" stroke="none"><circle cx="210.24" cy="72" r="5"/><circle cx="72" cy="210.24" r="5"/><circle cx="96.2" cy="96.2" r="5"/></g></g>
  <text transform="translate(128 864) rotate(-90)" font-size="23.2" text-anchor="middle" letter-spacing="7.2" font-family="Helvetica, Arial, sans-serif" fill="#5F564C">game1 · PLAYER BOARD · Elves</text>

  <!-- the hero, and the round they are playing -->
  <g fill="none" stroke="#1A1714"><rect x="168" y="120" width="520" height="720" rx="36" stroke-width="2.6"/><rect x="174" y="126" width="508" height="708" rx="30" stroke-width="0.9" stroke="#A0968A"/><g stroke-width="2.2" stroke-linecap="round"><path d="M 176,192 V 128 H 240"/><path d="M 680,192 V 128 H 616"/><path d="M 176,768 V 832 H 240"/><path d="M 680,768 V 832 H 616"/></g></g><text x="428" y="484" font-size="24.8" text-anchor="middle" letter-spacing="7.2" font-family="Helvetica, Arial, sans-serif" fill="#A0968A">CHARACTER</text>
  <rect x="168" y="888" width="520" height="720" rx="20" fill="none" stroke="#1A1714" stroke-width="1.6"/>
    <text x="200" y="947.2" font-size="23.2" letter-spacing="6.4" font-family="Helvetica, Arial, sans-serif" fill="#5F564C">THE ROUND</text>
    <path d="M 200,971.2 H 656" stroke="#1A1714" stroke-width="1.2"/>
    <rect x="184" y="984" width="488" height="75.2" fill="#D8CEBE" opacity="0.6"/>
    <rect x="200" y="999.2" width="44.8" height="44.8" rx="8" fill="none" stroke="#1A1714" stroke-width="1.2"/><text x="222.4" y="1031.2" font-size="24.8" text-anchor="middle" font-family="Helvetica, Arial, sans-serif">1</text><text x="264" y="1032" font-size="27.2">Events</text>
    <rect x="200" y="1074.4" width="44.8" height="44.8" rx="8" fill="none" stroke="#1A1714" stroke-width="1.2"/><text x="222.4" y="1106.4" font-size="24.8" text-anchor="middle" font-family="Helvetica, Arial, sans-serif">2</text><text x="264" y="1107.2" font-size="27.2">Labour Roll</text>
    <rect x="184" y="1134.4" width="488" height="75.2" fill="#D8CEBE" opacity="0.6"/>
    <rect x="200" y="1149.6" width="44.8" height="44.8" rx="8" fill="none" stroke="#1A1714" stroke-width="1.2"/><text x="222.4" y="1181.6" font-size="24.8" text-anchor="middle" font-family="Helvetica, Arial, sans-serif">3</text><text x="264" y="1182.4" font-size="27.2">Actions</text>
    <rect x="200" y="1224.8" width="44.8" height="44.8" rx="8" fill="none" stroke="#1A1714" stroke-width="1.2"/><text x="222.4" y="1256.8" font-size="24.8" text-anchor="middle" font-family="Helvetica, Arial, sans-serif">4</text><text x="264" y="1257.6" font-size="27.2">Production Tick</text>
    <rect x="184" y="1284.8" width="488" height="75.2" fill="#D8CEBE" opacity="0.6"/>
    <rect x="200" y="1300" width="44.8" height="44.8" rx="8" fill="none" stroke="#1A1714" stroke-width="1.2"/><text x="222.4" y="1332" font-size="24.8" text-anchor="middle" font-family="Helvetica, Arial, sans-serif">5</text><text x="264" y="1332.8" font-size="27.2">Feeding</text>
    <rect x="200" y="1375.2" width="44.8" height="44.8" rx="8" fill="none" stroke="#1A1714" stroke-width="1.2"/><text x="222.4" y="1407.2" font-size="24.8" text-anchor="middle" font-family="Helvetica, Arial, sans-serif">6</text><text x="264" y="1408" font-size="27.2">Market</text>
    <text x="200" y="1478.4" font-size="21.6" font-style="italic" fill="#3D3630">Turn order passes to the left.</text>
    <circle cx="256" cy="1528" r="52.8" fill="url(#player-hatch)" stroke="#1A1714" stroke-width="2"/><circle cx="256" cy="1528" r="40.8" fill="none" stroke="#1A1714" stroke-width="0.9"/><text x="336" y="1524.8" font-size="28.8" font-weight="bold">Elves</text><text x="336" y="1558.4" font-size="19.2" letter-spacing="3.2" font-family="Helvetica, Arial, sans-serif" fill="#7F7568">D6 · CARRIES 20 KG</text>

  <!-- the tracks: numbered from the bottom, walked by a token, exactly as a
       card's edge bar is - the board is not allowed a second convention -->
  <rect x="742.4" y="240" width="73.6" height="1296" rx="9.6" fill="none" stroke="#1A1714" stroke-width="2"/>
    <path d="M 742.4,1449.6 H 816" stroke="#1A1714" stroke-width="0.9" opacity="0.75"/>
    <path d="M 747.2,1485.6 L 754.4,1497.84 L 761.6,1485.6" fill="none" stroke="#1A1714" stroke-width="1.3" stroke-linecap="round" stroke-linejoin="round"/>
    <path d="M 742.4,1363.2 H 816" stroke="#1A1714" stroke-width="0.9" opacity="0.75"/>
    <path d="M 747.2,1399.2 L 754.4,1411.44 L 761.6,1399.2" fill="none" stroke="#1A1714" stroke-width="1.3" stroke-linecap="round" stroke-linejoin="round"/>
    <path d="M 742.4,1276.8 H 816" stroke="#1A1714" stroke-width="0.9" opacity="0.75"/>
    <path d="M 747.2,1312.8 L 754.4,1325.04 L 761.6,1312.8" fill="none" stroke="#1A1714" stroke-width="1.3" stroke-linecap="round" stroke-linejoin="round"/>
    <path d="M 742.4,1190.4 H 816" stroke="#1A1714" stroke-width="0.9" opacity="0.75"/>
    <path d="M 747.2,1226.4 L 754.4,1238.64 L 761.6,1226.4" fill="none" stroke="#1A1714" stroke-width="1.3" stroke-linecap="round" stroke-linejoin="round"/>
    <path d="M 742.4,1104 H 816" stroke="#1A1714" stroke-width="1.8" opacity="1"/>
    <path d="M 747.2,1140 L 754.4,1152.24 L 761.6,1140" fill="none" stroke="#1A1714" stroke-width="1.3" stroke-linecap="round" stroke-linejoin="round"/>
    <path d="M 742.4,1017.6 H 816" stroke="#1A1714" stroke-width="0.9" opacity="0.75"/>
    <path d="M 747.2,1053.6 L 754.4,1065.84 L 761.6,1053.6" fill="none" stroke="#1A1714" stroke-width="1.3" stroke-linecap="round" stroke-linejoin="round"/>
    <path d="M 742.4,931.2 H 816" stroke="#1A1714" stroke-width="0.9" opacity="0.75"/>
    <path d="M 747.2,967.2 L 754.4,979.44 L 761.6,967.2" fill="none" stroke="#1A1714" stroke-width="1.3" stroke-linecap="round" stroke-linejoin="round"/>
    <path d="M 742.4,844.8 H 816" stroke="#1A1714" stroke-width="0.9" opacity="0.75"/>
    <path d="M 747.2,880.8 L 754.4,893.04 L 761.6,880.8" fill="none" stroke="#1A1714" stroke-width="1.3" stroke-linecap="round" stroke-linejoin="round"/>
    <path d="M 742.4,758.4 H 816" stroke="#1A1714" stroke-width="0.9" opacity="0.75"/>
    <path d="M 747.2,794.4 L 754.4,806.64 L 761.6,794.4" fill="none" stroke="#1A1714" stroke-width="1.3" stroke-linecap="round" stroke-linejoin="round"/>
    <path d="M 742.4,672 H 816" stroke="#1A1714" stroke-width="1.8" opacity="1"/>
    <path d="M 747.2,708 L 754.4,720.24 L 761.6,708" fill="none" stroke="#1A1714" stroke-width="1.3" stroke-linecap="round" stroke-linejoin="round"/>
    <path d="M 742.4,585.6 H 816" stroke="#1A1714" stroke-width="0.9" opacity="0.75"/>
    <path d="M 747.2,621.6 L 754.4,633.84 L 761.6,621.6" fill="none" stroke="#1A1714" stroke-width="1.3" stroke-linecap="round" stroke-linejoin="round"/>
    <path d="M 742.4,499.2 H 816" stroke="#1A1714" stroke-width="0.9" opacity="0.75"/>
    <path d="M 747.2,535.2 L 754.4,547.44 L 761.6,535.2" fill="none" stroke="#1A1714" stroke-width="1.3" stroke-linecap="round" stroke-linejoin="round"/>
    <path d="M 742.4,412.8 H 816" stroke="#1A1714" stroke-width="0.9" opacity="0.75"/>
    <path d="M 747.2,448.8 L 754.4,461.04 L 761.6,448.8" fill="none" stroke="#1A1714" stroke-width="1.3" stroke-linecap="round" stroke-linejoin="round"/>
    <path d="M 742.4,326.4 H 816" stroke="#1A1714" stroke-width="0.9" opacity="0.75"/>
    <path d="M 747.2,362.4 L 754.4,374.64 L 761.6,362.4" fill="none" stroke="#1A1714" stroke-width="1.3" stroke-linecap="round" stroke-linejoin="round"/>
    <path d="M 747.2,276 L 754.4,288.24 L 761.6,276" fill="none" stroke="#1A1714" stroke-width="1.3" stroke-linecap="round" stroke-linejoin="round"/>
    <g fill="#1A1714"><text x="784.8" y="1501.6" font-size="24" text-anchor="middle" font-family="Helvetica, Arial, sans-serif">1</text><text x="784.8" y="1415.2" font-size="24" text-anchor="middle" font-family="Helvetica, Arial, sans-serif">2</text><text x="784.8" y="1328.8" font-size="24" text-anchor="middle" font-family="Helvetica, Arial, sans-serif">3</text><text x="784.8" y="1242.4" font-size="24" text-anchor="middle" font-family="Helvetica, Arial, sans-serif">4</text><text x="784.8" y="1156" font-size="24" text-anchor="middle" font-family="Helvetica, Arial, sans-serif" font-weight="bold">5</text><text x="784.8" y="1069.6" font-size="24" text-anchor="middle" font-family="Helvetica, Arial, sans-serif">6</text><text x="784.8" y="983.2" font-size="24" text-anchor="middle" font-family="Helvetica, Arial, sans-serif">7</text><text x="784.8" y="896.8" font-size="24" text-anchor="middle" font-family="Helvetica, Arial, sans-serif">8</text><text x="784.8" y="810.4" font-size="24" text-anchor="middle" font-family="Helvetica, Arial, sans-serif">9</text><text x="784.8" y="724" font-size="24" text-anchor="middle" font-family="Helvetica, Arial, sans-serif" font-weight="bold">10</text><text x="784.8" y="637.6" font-size="24" text-anchor="middle" font-family="Helvetica, Arial, sans-serif">11</text><text x="784.8" y="551.2" font-size="24" text-anchor="middle" font-family="Helvetica, Arial, sans-serif">12</text><text x="784.8" y="464.8" font-size="24" text-anchor="middle" font-family="Helvetica, Arial, sans-serif">13</text><text x="784.8" y="378.4" font-size="24" text-anchor="middle" font-family="Helvetica, Arial, sans-serif">14</text><text x="784.8" y="292" font-size="24" text-anchor="middle" font-family="Helvetica, Arial, sans-serif" font-weight="bold">15</text></g>
    <rect x="742.4" y="120" width="73.6" height="120" rx="9.6" fill="none" stroke="#7F7568" stroke-width="0.9"/><text x="785.6" y="198.4" font-size="54.4" text-anchor="middle" font-weight="bold">H</text><text transform="translate(752 180) rotate(-90)" font-size="17.6" text-anchor="middle" letter-spacing="2" font-family="Helvetica, Arial, sans-serif" fill="#5F564C">HEALTH</text>
    <circle cx="779.2" cy="1572" r="28" fill="none" stroke="#1A1714" stroke-width="1.2" stroke-dasharray="11.2 8"/><text x="779.2" y="1580.8" font-size="22.4" text-anchor="middle" font-family="Helvetica, Arial, sans-serif" fill="#7F7568">0</text>
  <rect x="828.8" y="240" width="73.6" height="1296" rx="9.6" fill="none" stroke="#1A1714" stroke-width="2"/>
    <path d="M 828.8,1449.6 H 902.4" stroke="#1A1714" stroke-width="0.9" opacity="0.75"/>
    <path d="M 833.6,1492.8 H 848" fill="none" stroke="#1A1714" stroke-width="1.3" stroke-linecap="round" stroke-linejoin="round"/>
    <path d="M 828.8,1363.2 H 902.4" stroke="#1A1714" stroke-width="0.9" opacity="0.75"/>
    <path d="M 833.6,1406.4 H 848" fill="none" stroke="#1A1714" stroke-width="1.3" stroke-linecap="round" stroke-linejoin="round"/>
    <path d="M 828.8,1276.8 H 902.4" stroke="#1A1714" stroke-width="0.9" opacity="0.75"/>
    <path d="M 833.6,1320 H 848" fill="none" stroke="#1A1714" stroke-width="1.3" stroke-linecap="round" stroke-linejoin="round"/>
    <path d="M 828.8,1190.4 H 902.4" stroke="#1A1714" stroke-width="0.9" opacity="0.75"/>
    <path d="M 833.6,1233.6 H 848" fill="none" stroke="#1A1714" stroke-width="1.3" stroke-linecap="round" stroke-linejoin="round"/>
    <path d="M 828.8,1104 H 902.4" stroke="#1A1714" stroke-width="1.8" opacity="1"/>
    <path d="M 833.6,1147.2 H 848" fill="none" stroke="#1A1714" stroke-width="1.3" stroke-linecap="round" stroke-linejoin="round"/>
    <path d="M 828.8,1017.6 H 902.4" stroke="#1A1714" stroke-width="0.9" opacity="0.75"/>
    <path d="M 833.6,1060.8 H 848" fill="none" stroke="#1A1714" stroke-width="1.3" stroke-linecap="round" stroke-linejoin="round"/>
    <path d="M 828.8,931.2 H 902.4" stroke="#1A1714" stroke-width="0.9" opacity="0.75"/>
    <path d="M 833.6,974.4 H 848" fill="none" stroke="#1A1714" stroke-width="1.3" stroke-linecap="round" stroke-linejoin="round"/>
    <path d="M 828.8,844.8 H 902.4" stroke="#1A1714" stroke-width="0.9" opacity="0.75"/>
    <path d="M 833.6,888 H 848" fill="none" stroke="#1A1714" stroke-width="1.3" stroke-linecap="round" stroke-linejoin="round"/>
    <path d="M 828.8,758.4 H 902.4" stroke="#1A1714" stroke-width="0.9" opacity="0.75"/>
    <path d="M 833.6,801.6 H 848" fill="none" stroke="#1A1714" stroke-width="1.3" stroke-linecap="round" stroke-linejoin="round"/>
    <path d="M 828.8,672 H 902.4" stroke="#1A1714" stroke-width="1.8" opacity="1"/>
    <path d="M 833.6,715.2 H 848" fill="none" stroke="#1A1714" stroke-width="1.3" stroke-linecap="round" stroke-linejoin="round"/>
    <path d="M 828.8,585.6 H 902.4" stroke="#1A1714" stroke-width="0.9" opacity="0.75"/>
    <path d="M 833.6,628.8 H 848" fill="none" stroke="#1A1714" stroke-width="1.3" stroke-linecap="round" stroke-linejoin="round"/>
    <path d="M 828.8,499.2 H 902.4" stroke="#1A1714" stroke-width="0.9" opacity="0.75"/>
    <path d="M 833.6,542.4 H 848" fill="none" stroke="#1A1714" stroke-width="1.3" stroke-linecap="round" stroke-linejoin="round"/>
    <path d="M 828.8,412.8 H 902.4" stroke="#1A1714" stroke-width="0.9" opacity="0.75"/>
    <path d="M 833.6,456 H 848" fill="none" stroke="#1A1714" stroke-width="1.3" stroke-linecap="round" stroke-linejoin="round"/>
    <path d="M 828.8,326.4 H 902.4" stroke="#1A1714" stroke-width="0.9" opacity="0.75"/>
    <path d="M 833.6,369.6 H 848" fill="none" stroke="#1A1714" stroke-width="1.3" stroke-linecap="round" stroke-linejoin="round"/>
    <path d="M 833.6,283.2 H 848" fill="none" stroke="#1A1714" stroke-width="1.3" stroke-linecap="round" stroke-linejoin="round"/>
    <g fill="#1A1714"><text x="871.2" y="1501.6" font-size="24" text-anchor="middle" font-family="Helvetica, Arial, sans-serif">2</text><text x="871.2" y="1415.2" font-size="24" text-anchor="middle" font-family="Helvetica, Arial, sans-serif">4</text><text x="871.2" y="1328.8" font-size="24" text-anchor="middle" font-family="Helvetica, Arial, sans-serif">6</text><text x="871.2" y="1242.4" font-size="24" text-anchor="middle" font-family="Helvetica, Arial, sans-serif">8</text><text x="871.2" y="1156" font-size="24" text-anchor="middle" font-family="Helvetica, Arial, sans-serif" font-weight="bold">10</text><text x="871.2" y="1069.6" font-size="24" text-anchor="middle" font-family="Helvetica, Arial, sans-serif">12</text><text x="871.2" y="983.2" font-size="24" text-anchor="middle" font-family="Helvetica, Arial, sans-serif">14</text><text x="871.2" y="896.8" font-size="24" text-anchor="middle" font-family="Helvetica, Arial, sans-serif">16</text><text x="871.2" y="810.4" font-size="24" text-anchor="middle" font-family="Helvetica, Arial, sans-serif">18</text><text x="871.2" y="724" font-size="24" text-anchor="middle" font-family="Helvetica, Arial, sans-serif" font-weight="bold">20</text><text x="871.2" y="637.6" font-size="24" text-anchor="middle" font-family="Helvetica, Arial, sans-serif">22</text><text x="871.2" y="551.2" font-size="24" text-anchor="middle" font-family="Helvetica, Arial, sans-serif">24</text><text x="871.2" y="464.8" font-size="24" text-anchor="middle" font-family="Helvetica, Arial, sans-serif">26</text><text x="871.2" y="378.4" font-size="24" text-anchor="middle" font-family="Helvetica, Arial, sans-serif">28</text><text x="871.2" y="292" font-size="24" text-anchor="middle" font-family="Helvetica, Arial, sans-serif" font-weight="bold">30</text></g>
    <rect x="828.8" y="120" width="73.6" height="120" rx="9.6" fill="none" stroke="#7F7568" stroke-width="0.9"/><text x="872" y="198.4" font-size="54.4" text-anchor="middle" font-weight="bold">B</text><text transform="translate(838.4 180) rotate(-90)" font-size="17.6" text-anchor="middle" letter-spacing="2" font-family="Helvetica, Arial, sans-serif" fill="#5F564C">BURDEN</text><text x="872" y="228.8" font-size="16.8" text-anchor="middle" letter-spacing="1.6" font-family="Helvetica, Arial, sans-serif" fill="#7F7568">kg</text>
    <circle cx="865.6" cy="1572" r="28" fill="none" stroke="#1A1714" stroke-width="1.2" stroke-dasharray="11.2 8"/><text x="865.6" y="1580.8" font-size="22.4" text-anchor="middle" font-family="Helvetica, Arial, sans-serif" fill="#7F7568">0</text>
  <rect x="915.2" y="240" width="73.6" height="1296" rx="9.6" fill="none" stroke="#1A1714" stroke-width="2"/>
    <path d="M 915.2,1449.6 H 988.8" stroke="#1A1714" stroke-width="0.9" opacity="0.75"/>
    <path d="M 920,1500 L 927.2,1487.76 L 934.4,1500" fill="none" stroke="#1A1714" stroke-width="1.3" stroke-linecap="round" stroke-linejoin="round"/>
    <path d="M 915.2,1363.2 H 988.8" stroke="#1A1714" stroke-width="0.9" opacity="0.75"/>
    <path d="M 920,1413.6 L 927.2,1401.36 L 934.4,1413.6" fill="none" stroke="#1A1714" stroke-width="1.3" stroke-linecap="round" stroke-linejoin="round"/>
    <path d="M 915.2,1276.8 H 988.8" stroke="#1A1714" stroke-width="0.9" opacity="0.75"/>
    <path d="M 920,1327.2 L 927.2,1314.96 L 934.4,1327.2" fill="none" stroke="#1A1714" stroke-width="1.3" stroke-linecap="round" stroke-linejoin="round"/>
    <path d="M 915.2,1190.4 H 988.8" stroke="#1A1714" stroke-width="0.9" opacity="0.75"/>
    <path d="M 920,1240.8 L 927.2,1228.56 L 934.4,1240.8" fill="none" stroke="#1A1714" stroke-width="1.3" stroke-linecap="round" stroke-linejoin="round"/>
    <path d="M 915.2,1104 H 988.8" stroke="#1A1714" stroke-width="1.8" opacity="1"/>
    <path d="M 920,1154.4 L 927.2,1142.16 L 934.4,1154.4" fill="none" stroke="#1A1714" stroke-width="1.3" stroke-linecap="round" stroke-linejoin="round"/>
    <path d="M 915.2,1017.6 H 988.8" stroke="#1A1714" stroke-width="0.9" opacity="0.75"/>
    <path d="M 920,1068 L 927.2,1055.76 L 934.4,1068" fill="none" stroke="#1A1714" stroke-width="1.3" stroke-linecap="round" stroke-linejoin="round"/>
    <path d="M 915.2,931.2 H 988.8" stroke="#1A1714" stroke-width="0.9" opacity="0.75"/>
    <path d="M 920,981.6 L 927.2,969.36 L 934.4,981.6" fill="none" stroke="#1A1714" stroke-width="1.3" stroke-linecap="round" stroke-linejoin="round"/>
    <path d="M 915.2,844.8 H 988.8" stroke="#1A1714" stroke-width="0.9" opacity="0.75"/>
    <path d="M 920,895.2 L 927.2,882.96 L 934.4,895.2" fill="none" stroke="#1A1714" stroke-width="1.3" stroke-linecap="round" stroke-linejoin="round"/>
    <path d="M 915.2,758.4 H 988.8" stroke="#1A1714" stroke-width="0.9" opacity="0.75"/>
    <path d="M 920,808.8 L 927.2,796.56 L 934.4,808.8" fill="none" stroke="#1A1714" stroke-width="1.3" stroke-linecap="round" stroke-linejoin="round"/>
    <path d="M 915.2,672 H 988.8" stroke="#1A1714" stroke-width="1.8" opacity="1"/>
    <path d="M 920,722.4 L 927.2,710.16 L 934.4,722.4" fill="none" stroke="#1A1714" stroke-width="1.3" stroke-linecap="round" stroke-linejoin="round"/>
    <path d="M 915.2,585.6 H 988.8" stroke="#1A1714" stroke-width="0.9" opacity="0.75"/>
    <path d="M 920,636 L 927.2,623.76 L 934.4,636" fill="none" stroke="#1A1714" stroke-width="1.3" stroke-linecap="round" stroke-linejoin="round"/>
    <path d="M 915.2,499.2 H 988.8" stroke="#1A1714" stroke-width="0.9" opacity="0.75"/>
    <path d="M 920,549.6 L 927.2,537.36 L 934.4,549.6" fill="none" stroke="#1A1714" stroke-width="1.3" stroke-linecap="round" stroke-linejoin="round"/>
    <path d="M 915.2,412.8 H 988.8" stroke="#1A1714" stroke-width="0.9" opacity="0.75"/>
    <path d="M 920,463.2 L 927.2,450.96 L 934.4,463.2" fill="none" stroke="#1A1714" stroke-width="1.3" stroke-linecap="round" stroke-linejoin="round"/>
    <path d="M 915.2,326.4 H 988.8" stroke="#1A1714" stroke-width="0.9" opacity="0.75"/>
    <path d="M 920,376.8 L 927.2,364.56 L 934.4,376.8" fill="none" stroke="#1A1714" stroke-width="1.3" stroke-linecap="round" stroke-linejoin="round"/>
    <path d="M 920,290.4 L 927.2,278.16 L 934.4,290.4" fill="none" stroke="#1A1714" stroke-width="1.3" stroke-linecap="round" stroke-linejoin="round"/>
    <g fill="#1A1714"><text x="957.6" y="1501.6" font-size="24" text-anchor="middle" font-family="Helvetica, Arial, sans-serif">1</text><text x="957.6" y="1415.2" font-size="24" text-anchor="middle" font-family="Helvetica, Arial, sans-serif">2</text><text x="957.6" y="1328.8" font-size="24" text-anchor="middle" font-family="Helvetica, Arial, sans-serif">3</text><text x="957.6" y="1242.4" font-size="24" text-anchor="middle" font-family="Helvetica, Arial, sans-serif">4</text><text x="957.6" y="1156" font-size="24" text-anchor="middle" font-family="Helvetica, Arial, sans-serif" font-weight="bold">5</text><text x="957.6" y="1069.6" font-size="24" text-anchor="middle" font-family="Helvetica, Arial, sans-serif">6</text><text x="957.6" y="983.2" font-size="24" text-anchor="middle" font-family="Helvetica, Arial, sans-serif">7</text><text x="957.6" y="896.8" font-size="24" text-anchor="middle" font-family="Helvetica, Arial, sans-serif">8</text><text x="957.6" y="810.4" font-size="24" text-anchor="middle" font-family="Helvetica, Arial, sans-serif">9</text><text x="957.6" y="724" font-size="24" text-anchor="middle" font-family="Helvetica, Arial, sans-serif" font-weight="bold">10</text><text x="957.6" y="637.6" font-size="24" text-anchor="middle" font-family="Helvetica, Arial, sans-serif">11</text><text x="957.6" y="551.2" font-size="24" text-anchor="middle" font-family="Helvetica, Arial, sans-serif">12</text><text x="957.6" y="464.8" font-size="24" text-anchor="middle" font-family="Helvetica, Arial, sans-serif">13</text><text x="957.6" y="378.4" font-size="24" text-anchor="middle" font-family="Helvetica, Arial, sans-serif">14</text><text x="957.6" y="292" font-size="24" text-anchor="middle" font-family="Helvetica, Arial, sans-serif" font-weight="bold">15</text></g>
    <rect x="915.2" y="120" width="73.6" height="120" rx="9.6" fill="none" stroke="#7F7568" stroke-width="0.9"/><text x="958.4" y="198.4" font-size="54.4" text-anchor="middle" font-weight="bold">S</text><text transform="translate(924.8 180) rotate(-90)" font-size="17.6" text-anchor="middle" letter-spacing="2" font-family="Helvetica, Arial, sans-serif" fill="#5F564C">SPEED</text><text x="958.4" y="228.8" font-size="16.8" text-anchor="middle" letter-spacing="1.6" font-family="Helvetica, Arial, sans-serif" fill="#7F7568">hexes</text>
    <circle cx="952" cy="1572" r="28" fill="none" stroke="#1A1714" stroke-width="1.2" stroke-dasharray="11.2 8"/><text x="952" y="1580.8" font-size="22.4" text-anchor="middle" font-family="Helvetica, Arial, sans-serif" fill="#7F7568">0</text>
  <rect x="1001.6" y="240" width="73.6" height="1296" rx="9.6" fill="none" stroke="#1A1714" stroke-width="2"/>
    <path d="M 1001.6,1449.6 H 1075.2" stroke="#1A1714" stroke-width="0.9" opacity="0.75"/>
    <path d="M 1006.4,1485.6 L 1013.6,1497.84 L 1020.8,1485.6" fill="none" stroke="#1A1714" stroke-width="1.3" stroke-linecap="round" stroke-linejoin="round"/>
    <path d="M 1001.6,1363.2 H 1075.2" stroke="#1A1714" stroke-width="0.9" opacity="0.75"/>
    <path d="M 1006.4,1399.2 L 1013.6,1411.44 L 1020.8,1399.2" fill="none" stroke="#1A1714" stroke-width="1.3" stroke-linecap="round" stroke-linejoin="round"/>
    <path d="M 1001.6,1276.8 H 1075.2" stroke="#1A1714" stroke-width="0.9" opacity="0.75"/>
    <path d="M 1006.4,1312.8 L 1013.6,1325.04 L 1020.8,1312.8" fill="none" stroke="#1A1714" stroke-width="1.3" stroke-linecap="round" stroke-linejoin="round"/>
    <path d="M 1001.6,1190.4 H 1075.2" stroke="#1A1714" stroke-width="0.9" opacity="0.75"/>
    <path d="M 1006.4,1226.4 L 1013.6,1238.64 L 1020.8,1226.4" fill="none" stroke="#1A1714" stroke-width="1.3" stroke-linecap="round" stroke-linejoin="round"/>
    <path d="M 1001.6,1104 H 1075.2" stroke="#1A1714" stroke-width="1.8" opacity="1"/>
    <path d="M 1006.4,1140 L 1013.6,1152.24 L 1020.8,1140" fill="none" stroke="#1A1714" stroke-width="1.3" stroke-linecap="round" stroke-linejoin="round"/>
    <path d="M 1001.6,1017.6 H 1075.2" stroke="#1A1714" stroke-width="0.9" opacity="0.75"/>
    <path d="M 1006.4,1053.6 L 1013.6,1065.84 L 1020.8,1053.6" fill="none" stroke="#1A1714" stroke-width="1.3" stroke-linecap="round" stroke-linejoin="round"/>
    <path d="M 1001.6,931.2 H 1075.2" stroke="#1A1714" stroke-width="0.9" opacity="0.75"/>
    <path d="M 1006.4,967.2 L 1013.6,979.44 L 1020.8,967.2" fill="none" stroke="#1A1714" stroke-width="1.3" stroke-linecap="round" stroke-linejoin="round"/>
    <path d="M 1001.6,844.8 H 1075.2" stroke="#1A1714" stroke-width="0.9" opacity="0.75"/>
    <path d="M 1006.4,880.8 L 1013.6,893.04 L 1020.8,880.8" fill="none" stroke="#1A1714" stroke-width="1.3" stroke-linecap="round" stroke-linejoin="round"/>
    <path d="M 1001.6,758.4 H 1075.2" stroke="#1A1714" stroke-width="0.9" opacity="0.75"/>
    <path d="M 1006.4,794.4 L 1013.6,806.64 L 1020.8,794.4" fill="none" stroke="#1A1714" stroke-width="1.3" stroke-linecap="round" stroke-linejoin="round"/>
    <path d="M 1001.6,672 H 1075.2" stroke="#1A1714" stroke-width="1.8" opacity="1"/>
    <path d="M 1006.4,708 L 1013.6,720.24 L 1020.8,708" fill="none" stroke="#1A1714" stroke-width="1.3" stroke-linecap="round" stroke-linejoin="round"/>
    <path d="M 1001.6,585.6 H 1075.2" stroke="#1A1714" stroke-width="0.9" opacity="0.75"/>
    <path d="M 1006.4,621.6 L 1013.6,633.84 L 1020.8,621.6" fill="none" stroke="#1A1714" stroke-width="1.3" stroke-linecap="round" stroke-linejoin="round"/>
    <path d="M 1001.6,499.2 H 1075.2" stroke="#1A1714" stroke-width="0.9" opacity="0.75"/>
    <path d="M 1006.4,535.2 L 1013.6,547.44 L 1020.8,535.2" fill="none" stroke="#1A1714" stroke-width="1.3" stroke-linecap="round" stroke-linejoin="round"/>
    <path d="M 1001.6,412.8 H 1075.2" stroke="#1A1714" stroke-width="0.9" opacity="0.75"/>
    <path d="M 1006.4,448.8 L 1013.6,461.04 L 1020.8,448.8" fill="none" stroke="#1A1714" stroke-width="1.3" stroke-linecap="round" stroke-linejoin="round"/>
    <path d="M 1001.6,326.4 H 1075.2" stroke="#1A1714" stroke-width="0.9" opacity="0.75"/>
    <path d="M 1006.4,362.4 L 1013.6,374.64 L 1020.8,362.4" fill="none" stroke="#1A1714" stroke-width="1.3" stroke-linecap="round" stroke-linejoin="round"/>
    <path d="M 1006.4,276 L 1013.6,288.24 L 1020.8,276" fill="none" stroke="#1A1714" stroke-width="1.3" stroke-linecap="round" stroke-linejoin="round"/>
    <g fill="#1A1714"><text x="1044" y="1501.6" font-size="24" text-anchor="middle" font-family="Helvetica, Arial, sans-serif">1</text><text x="1044" y="1415.2" font-size="24" text-anchor="middle" font-family="Helvetica, Arial, sans-serif">2</text><text x="1044" y="1328.8" font-size="24" text-anchor="middle" font-family="Helvetica, Arial, sans-serif">3</text><text x="1044" y="1242.4" font-size="24" text-anchor="middle" font-family="Helvetica, Arial, sans-serif">4</text><text x="1044" y="1156" font-size="24" text-anchor="middle" font-family="Helvetica, Arial, sans-serif" font-weight="bold">5</text><text x="1044" y="1069.6" font-size="24" text-anchor="middle" font-family="Helvetica, Arial, sans-serif">6</text><text x="1044" y="983.2" font-size="24" text-anchor="middle" font-family="Helvetica, Arial, sans-serif">7</text><text x="1044" y="896.8" font-size="24" text-anchor="middle" font-family="Helvetica, Arial, sans-serif">8</text><text x="1044" y="810.4" font-size="24" text-anchor="middle" font-family="Helvetica, Arial, sans-serif">9</text><text x="1044" y="724" font-size="24" text-anchor="middle" font-family="Helvetica, Arial, sans-serif" font-weight="bold">10</text><text x="1044" y="637.6" font-size="24" text-anchor="middle" font-family="Helvetica, Arial, sans-serif">11</text><text x="1044" y="551.2" font-size="24" text-anchor="middle" font-family="Helvetica, Arial, sans-serif">12</text><text x="1044" y="464.8" font-size="24" text-anchor="middle" font-family="Helvetica, Arial, sans-serif">13</text><text x="1044" y="378.4" font-size="24" text-anchor="middle" font-family="Helvetica, Arial, sans-serif">14</text><text x="1044" y="292" font-size="24" text-anchor="middle" font-family="Helvetica, Arial, sans-serif" font-weight="bold">15</text></g>
    <rect x="1001.6" y="120" width="73.6" height="120" rx="9.6" fill="none" stroke="#7F7568" stroke-width="0.9"/><text x="1044.8" y="198.4" font-size="54.4" text-anchor="middle" font-weight="bold">D</text><text transform="translate(1011.2 180) rotate(-90)" font-size="17.6" text-anchor="middle" letter-spacing="2" font-family="Helvetica, Arial, sans-serif" fill="#5F564C">DAMAGE</text>
    <circle cx="1038.4" cy="1572" r="28" fill="none" stroke="#1A1714" stroke-width="1.2" stroke-dasharray="11.2 8"/><text x="1038.4" y="1580.8" font-size="22.4" text-anchor="middle" font-family="Helvetica, Arial, sans-serif" fill="#7F7568">0</text>
  <rect x="1088" y="240" width="73.6" height="1296" rx="9.6" fill="none" stroke="#1A1714" stroke-width="2"/>
    <path d="M 1088,1449.6 H 1161.6" stroke="#1A1714" stroke-width="0.9" opacity="0.75"/>
    <path d="M 1093.52,1487.04 V 1495.68 M 1102.16,1489.92 V 1498.56" fill="none" stroke="#1A1714" stroke-width="1.3" stroke-linecap="round" stroke-linejoin="round"/>
    <path d="M 1088,1363.2 H 1161.6" stroke="#1A1714" stroke-width="0.9" opacity="0.75"/>
    <path d="M 1093.52,1400.64 V 1409.28 M 1102.16,1403.52 V 1412.16" fill="none" stroke="#1A1714" stroke-width="1.3" stroke-linecap="round" stroke-linejoin="round"/>
    <path d="M 1088,1276.8 H 1161.6" stroke="#1A1714" stroke-width="0.9" opacity="0.75"/>
    <path d="M 1093.52,1314.24 V 1322.88 M 1102.16,1317.12 V 1325.76" fill="none" stroke="#1A1714" stroke-width="1.3" stroke-linecap="round" stroke-linejoin="round"/>
    <path d="M 1088,1190.4 H 1161.6" stroke="#1A1714" stroke-width="0.9" opacity="0.75"/>
    <path d="M 1093.52,1227.84 V 1236.48 M 1102.16,1230.72 V 1239.36" fill="none" stroke="#1A1714" stroke-width="1.3" stroke-linecap="round" stroke-linejoin="round"/>
    <path d="M 1088,1104 H 1161.6" stroke="#1A1714" stroke-width="1.8" opacity="1"/>
    <path d="M 1093.52,1141.44 V 1150.08 M 1102.16,1144.32 V 1152.96" fill="none" stroke="#1A1714" stroke-width="1.3" stroke-linecap="round" stroke-linejoin="round"/>
    <path d="M 1088,1017.6 H 1161.6" stroke="#1A1714" stroke-width="0.9" opacity="0.75"/>
    <path d="M 1093.52,1055.04 V 1063.68 M 1102.16,1057.92 V 1066.56" fill="none" stroke="#1A1714" stroke-width="1.3" stroke-linecap="round" stroke-linejoin="round"/>
    <path d="M 1088,931.2 H 1161.6" stroke="#1A1714" stroke-width="0.9" opacity="0.75"/>
    <path d="M 1093.52,968.64 V 977.28 M 1102.16,971.52 V 980.16" fill="none" stroke="#1A1714" stroke-width="1.3" stroke-linecap="round" stroke-linejoin="round"/>
    <path d="M 1088,844.8 H 1161.6" stroke="#1A1714" stroke-width="0.9" opacity="0.75"/>
    <path d="M 1093.52,882.24 V 890.88 M 1102.16,885.12 V 893.76" fill="none" stroke="#1A1714" stroke-width="1.3" stroke-linecap="round" stroke-linejoin="round"/>
    <path d="M 1088,758.4 H 1161.6" stroke="#1A1714" stroke-width="0.9" opacity="0.75"/>
    <path d="M 1093.52,795.84 V 804.48 M 1102.16,798.72 V 807.36" fill="none" stroke="#1A1714" stroke-width="1.3" stroke-linecap="round" stroke-linejoin="round"/>
    <path d="M 1088,672 H 1161.6" stroke="#1A1714" stroke-width="1.8" opacity="1"/>
    <path d="M 1093.52,709.44 V 718.08 M 1102.16,712.32 V 720.96" fill="none" stroke="#1A1714" stroke-width="1.3" stroke-linecap="round" stroke-linejoin="round"/>
    <path d="M 1088,585.6 H 1161.6" stroke="#1A1714" stroke-width="0.9" opacity="0.75"/>
    <path d="M 1093.52,623.04 V 631.68 M 1102.16,625.92 V 634.56" fill="none" stroke="#1A1714" stroke-width="1.3" stroke-linecap="round" stroke-linejoin="round"/>
    <path d="M 1088,499.2 H 1161.6" stroke="#1A1714" stroke-width="0.9" opacity="0.75"/>
    <path d="M 1093.52,536.64 V 545.28 M 1102.16,539.52 V 548.16" fill="none" stroke="#1A1714" stroke-width="1.3" stroke-linecap="round" stroke-linejoin="round"/>
    <path d="M 1088,412.8 H 1161.6" stroke="#1A1714" stroke-width="0.9" opacity="0.75"/>
    <path d="M 1093.52,450.24 V 458.88 M 1102.16,453.12 V 461.76" fill="none" stroke="#1A1714" stroke-width="1.3" stroke-linecap="round" stroke-linejoin="round"/>
    <path d="M 1088,326.4 H 1161.6" stroke="#1A1714" stroke-width="0.9" opacity="0.75"/>
    <path d="M 1093.52,363.84 V 372.48 M 1102.16,366.72 V 375.36" fill="none" stroke="#1A1714" stroke-width="1.3" stroke-linecap="round" stroke-linejoin="round"/>
    <path d="M 1093.52,277.44 V 286.08 M 1102.16,280.32 V 288.96" fill="none" stroke="#1A1714" stroke-width="1.3" stroke-linecap="round" stroke-linejoin="round"/>
    <g fill="#1A1714"><text x="1130.4" y="1501.6" font-size="24" text-anchor="middle" font-family="Helvetica, Arial, sans-serif">1</text><text x="1130.4" y="1415.2" font-size="24" text-anchor="middle" font-family="Helvetica, Arial, sans-serif">2</text><text x="1130.4" y="1328.8" font-size="24" text-anchor="middle" font-family="Helvetica, Arial, sans-serif">3</text><text x="1130.4" y="1242.4" font-size="24" text-anchor="middle" font-family="Helvetica, Arial, sans-serif">4</text><text x="1130.4" y="1156" font-size="24" text-anchor="middle" font-family="Helvetica, Arial, sans-serif" font-weight="bold">5</text><text x="1130.4" y="1069.6" font-size="24" text-anchor="middle" font-family="Helvetica, Arial, sans-serif">6</text><text x="1130.4" y="983.2" font-size="24" text-anchor="middle" font-family="Helvetica, Arial, sans-serif">7</text><text x="1130.4" y="896.8" font-size="24" text-anchor="middle" font-family="Helvetica, Arial, sans-serif">8</text><text x="1130.4" y="810.4" font-size="24" text-anchor="middle" font-family="Helvetica, Arial, sans-serif">9</text><text x="1130.4" y="724" font-size="24" text-anchor="middle" font-family="Helvetica, Arial, sans-serif" font-weight="bold">10</text><text x="1130.4" y="637.6" font-size="24" text-anchor="middle" font-family="Helvetica, Arial, sans-serif">11</text><text x="1130.4" y="551.2" font-size="24" text-anchor="middle" font-family="Helvetica, Arial, sans-serif">12</text><text x="1130.4" y="464.8" font-size="24" text-anchor="middle" font-family="Helvetica, Arial, sans-serif">13</text><text x="1130.4" y="378.4" font-size="24" text-anchor="middle" font-family="Helvetica, Arial, sans-serif">14</text><text x="1130.4" y="292" font-size="24" text-anchor="middle" font-family="Helvetica, Arial, sans-serif" font-weight="bold">15</text></g>
    <rect x="1088" y="120" width="73.6" height="120" rx="9.6" fill="none" stroke="#7F7568" stroke-width="0.9"/><text x="1131.2" y="198.4" font-size="54.4" text-anchor="middle" font-weight="bold">M</text><text transform="translate(1097.6 180) rotate(-90)" font-size="17.6" text-anchor="middle" letter-spacing="2" font-family="Helvetica, Arial, sans-serif" fill="#5F564C">MANA</text>
    <circle cx="1124.8" cy="1572" r="28" fill="none" stroke="#1A1714" stroke-width="1.2" stroke-dasharray="11.2 8"/><text x="1124.8" y="1580.8" font-size="22.4" text-anchor="middle" font-family="Helvetica, Arial, sans-serif" fill="#7F7568">0</text>

  <!-- what the hero has in play -->
  <g fill="none" stroke="#1A1714"><rect x="1216" y="120" width="520" height="720" rx="36" stroke-width="2.6"/><rect x="1222" y="126" width="508" height="708" rx="30" stroke-width="0.9" stroke="#A0968A"/><g stroke-width="2.2" stroke-linecap="round"><path d="M 1224,192 V 128 H 1288"/><path d="M 1728,192 V 128 H 1664"/><path d="M 1224,768 V 832 H 1288"/><path d="M 1728,768 V 832 H 1664"/></g></g><text x="1476" y="484" font-size="24.8" text-anchor="middle" letter-spacing="7.2" font-family="Helvetica, Arial, sans-serif" fill="#A0968A">ITEM</text>
  <g fill="none" stroke="#1A1714"><rect x="1784" y="120" width="520" height="720" rx="36" stroke-width="2.6"/><rect x="1790" y="126" width="508" height="708" rx="30" stroke-width="0.9" stroke="#A0968A"/><g stroke-width="2.2" stroke-linecap="round"><path d="M 1792,192 V 128 H 1856"/><path d="M 2296,192 V 128 H 2232"/><path d="M 1792,768 V 832 H 1856"/><path d="M 2296,768 V 832 H 2232"/></g></g><text x="2044" y="484" font-size="24.8" text-anchor="middle" letter-spacing="7.2" font-family="Helvetica, Arial, sans-serif" fill="#A0968A">ITEM</text>
  <g fill="none" stroke="#1A1714"><rect x="1216" y="888" width="520" height="720" rx="36" stroke-width="2.6"/><rect x="1222" y="894" width="508" height="708" rx="30" stroke-width="0.9" stroke="#A0968A"/><g stroke-width="2.2" stroke-linecap="round"><path d="M 1224,960 V 896 H 1288"/><path d="M 1728,960 V 896 H 1664"/><path d="M 1224,1536 V 1600 H 1288"/><path d="M 1728,1536 V 1600 H 1664"/></g></g><text x="1476" y="1252" font-size="24.8" text-anchor="middle" letter-spacing="7.2" font-family="Helvetica, Arial, sans-serif" fill="#A0968A">ITEM</text>
  <g fill="none" stroke="#1A1714"><rect x="1784" y="888" width="520" height="720" rx="36" stroke-width="2.6"/><rect x="1790" y="894" width="508" height="708" rx="30" stroke-width="0.9" stroke="#A0968A"/><g stroke-width="2.2" stroke-linecap="round"><path d="M 1792,960 V 896 H 1856"/><path d="M 2296,960 V 896 H 2232"/><path d="M 1792,1536 V 1600 H 1856"/><path d="M 2296,1536 V 1600 H 2232"/></g></g><text x="2044" y="1252" font-size="24.8" text-anchor="middle" letter-spacing="7.2" font-family="Helvetica, Arial, sans-serif" fill="#A0968A">ITEM</text>
</g>

<!-- ============================================================ GRIME -->
<g id="grime">
  <g fill="none" stroke="#1A1714" stroke-width="1.2" opacity="0.32"><path d="M 16,72 A 56,56 0 0 1 72,16"/><path d="M 2352,16 A 56,56 0 0 1 2408,72"/><path d="M 2408,1656 A 56,56 0 0 1 2352,1712"/><path d="M 72,1712 A 56,56 0 0 1 16,1656"/></g><path d="M 24,24 H 232 Q 104,120 24,216 Z" fill="#1A1714" opacity="0.03"/><path d="M 2400,1704 H 2208 Q 2328,1616 2400,1528 Z" fill="#1A1714" opacity="0.028"/><g fill="#1A1714" opacity="0.05"><circle cx="1816.7" cy="1423.06" r="1.45"/><circle cx="2174.68" cy="207.8" r="1.65"/><circle cx="481.24" cy="1121.42" r="1.38"/><circle cx="1284.8" cy="1396.05" r="1.96"/><circle cx="1505.5" cy="366.4" r="2.09"/><circle cx="554.52" cy="754.38" r="1.65"/><circle cx="416.38" cy="405.6" r="1.46"/><circle cx="2290.22" cy="1025.34" r="2.03"/><circle cx="2361.92" cy="262.41" r="2.27"/></g><circle cx="1760" cy="953.28" r="68" fill="none" stroke="#D9CBAF" stroke-width="3.4" opacity="0.55"/>
</g>
</svg>
