<svg xmlns="http://www.w3.org/2000/svg" viewBox="0 0 780 317" font-family="Georgia, 'Times New Roman', serif">
<defs><marker id="f-arrow" viewBox="0 0 8 8" refX="7" refY="4" markerWidth="6" markerHeight="6" orient="auto"><path d="M0 0L8 4L0 8z" fill="#5F564C"/></marker></defs>
<rect width="780" height="317" fill="#EDE4D1"/>
<text x="16" y="24" font-size="15" font-weight="bold" fill="#1A1714" class="f-token" data-kind="buildings" data-id="brewery">Brewery</text><text x="16" y="40" font-size="8.5" fill="#3D3630">Build it from 4 Lumber + 2 Stone + 1 Ironware — 15 build points</text><text x="16" y="52" font-size="8.5" fill="#3D3630">run by a Brewer</text>
<g class="f-token" data-kind="commodities" data-id="grain"><rect x="16" y="68" width="57.74" height="18" rx="4" fill="#e7d6b8" stroke="#C4882B" stroke-width="1"/><text x="23" y="80.5" font-size="9" fill="#1A1714">3 × Grain</text></g>
<text x="23" y="94" font-size="7" fill="#5F564C" font-style="italic">from the Farm</text>
<line x1="75.74" y1="77" x2="296" y2="131.5" stroke="#5F564C" stroke-width="0.8" marker-end="url(#f-arrow)"/>
<g class="f-token" data-kind="commodities" data-id="water"><rect x="16" y="101" width="57.74" height="18" rx="4" fill="#e7d6b8" stroke="#C4882B" stroke-width="1"/><text x="23" y="113.5" font-size="9" fill="#1A1714">2 × Water</text></g>
<text x="23" y="127" font-size="7" fill="#5F564C" font-style="italic">from the Well</text>
<line x1="75.74" y1="110" x2="296" y2="131.5" stroke="#5F564C" stroke-width="0.8" marker-end="url(#f-arrow)"/>
<g class="f-token" data-kind="commodities" data-id="hops"><rect x="16" y="134" width="52.88" height="18" rx="4" fill="#e7d6b8" stroke="#C4882B" stroke-width="1"/><text x="23" y="146.5" font-size="9" fill="#1A1714">1 × Hops</text></g>
<text x="23" y="160" font-size="7" fill="#5F564C" font-style="italic">from the Farm</text>
<line x1="70.88" y1="143" x2="296" y2="131.5" stroke="#5F564C" stroke-width="0.8" marker-end="url(#f-arrow)"/>
<g class="f-token" data-kind="commodities" data-id="barrel"><rect x="16" y="167" width="62.6" height="18" rx="4" fill="#e7d6b8" stroke="#C4882B" stroke-width="1"/><text x="23" y="179.5" font-size="9" fill="#1A1714">1 × Barrel</text></g>
<text x="23" y="193" font-size="7" fill="#5F564C" font-style="italic">from the Carpenter's Shop</text>
<line x1="80.6" y1="176" x2="296" y2="131.5" stroke="#5F564C" stroke-width="0.8" marker-end="url(#f-arrow)"/>
<g class="f-token" data-kind="recipes" data-id="brew-ale"><rect x="300" y="113" width="220" height="37" rx="5" fill="#e2cbb7" stroke="#A33B26" stroke-width="1.3"/><text x="410" y="127" text-anchor="middle" font-size="10.5" font-weight="bold" fill="#1A1714">Brew Ale</text><text x="410" y="139" text-anchor="middle" font-size="8" fill="#3D3630">3h effort</text></g>
<line x1="524" y1="131.5" x2="548" y2="131.5" stroke="#5F564C" stroke-width="0.8" marker-end="url(#f-arrow)"/>
<g class="f-token" data-kind="commodities" data-id="ale"><rect x="552" y="122.5" width="48.02" height="18" rx="4" fill="#e7d6b8" stroke="#C4882B" stroke-width="1"/><text x="559" y="135" font-size="9" fill="#1A1714">2 × Ale</text></g>
<line x1="16" y1="201" x2="764" y2="201" stroke="#C0B7A9" stroke-width="0.6"/>
<g class="f-token" data-kind="commodities" data-id="honey"><rect x="16" y="207" width="57.74" height="18" rx="4" fill="#e7d6b8" stroke="#C4882B" stroke-width="1"/><text x="23" y="219.5" font-size="9" fill="#1A1714">3 × Honey</text></g>
<text x="23" y="233" font-size="7" fill="#5F564C" font-style="italic">from the Apiary</text>
<line x1="75.74" y1="216" x2="296" y2="254" stroke="#5F564C" stroke-width="0.8" marker-end="url(#f-arrow)"/>
<g class="f-token" data-kind="commodities" data-id="water"><rect x="16" y="240" width="57.74" height="18" rx="4" fill="#e7d6b8" stroke="#C4882B" stroke-width="1"/><text x="23" y="252.5" font-size="9" fill="#1A1714">2 × Water</text></g>
<text x="23" y="266" font-size="7" fill="#5F564C" font-style="italic">from the Well</text>
<line x1="75.74" y1="249" x2="296" y2="254" stroke="#5F564C" stroke-width="0.8" marker-end="url(#f-arrow)"/>
<g class="f-token" data-kind="commodities" data-id="barrel"><rect x="16" y="273" width="62.6" height="18" rx="4" fill="#e7d6b8" stroke="#C4882B" stroke-width="1"/><text x="23" y="285.5" font-size="9" fill="#1A1714">1 × Barrel</text></g>
<text x="23" y="299" font-size="7" fill="#5F564C" font-style="italic">from the Carpenter's Shop</text>
<line x1="80.6" y1="282" x2="296" y2="254" stroke="#5F564C" stroke-width="0.8" marker-end="url(#f-arrow)"/>
<g class="f-token" data-kind="recipes" data-id="brew-mead"><rect x="300" y="235.5" width="220" height="37" rx="5" fill="#e2cbb7" stroke="#A33B26" stroke-width="1.3"/><text x="410" y="249.5" text-anchor="middle" font-size="10.5" font-weight="bold" fill="#1A1714">Brew Mead</text><text x="410" y="261.5" text-anchor="middle" font-size="8" fill="#3D3630">3h effort</text></g>
<line x1="524" y1="254" x2="548" y2="254" stroke="#5F564C" stroke-width="0.8" marker-end="url(#f-arrow)"/>
<g class="f-token" data-kind="commodities" data-id="mead"><rect x="552" y="245" width="52.88" height="18" rx="4" fill="#e7d6b8" stroke="#C4882B" stroke-width="1"/><text x="559" y="257.5" font-size="9" fill="#1A1714">2 × Mead</text></g>
</svg>