<svg xmlns="http://www.w3.org/2000/svg" viewBox="0 0 552 752" width="552" height="752" font-family="Georgia, 'Iowan Old Style', 'Times New Roman', serif">
<title>Doctor Elspeth Marrow — CHR-06</title>
<desc>Character card: Doctor Elspeth Marrow, Physician. Generated by tools/build-cards.mjs from data/*.json — do not edit. 63x88mm at 8 units/mm, 3mm bleed. The portrait is cropped on the plate's subject, from docs/art/framing.json. The ink plate alone is the black-and-white edition.</desc>
<defs>
  <clipPath id="portrait-window"><rect x="88" y="128" width="376" height="368"/></clipPath>
</defs>

<!-- ============================================================ WASH -->
<g id="wash">
  <rect x="0" y="0" width="552" height="752" fill="#EDE4D1"/>
  <g clip-path="url(#portrait-window)">
    <image href="../art/renders/character-chr-06.png" x="87.4" y="83.14" width="376.6" height="532.24" preserveAspectRatio="xMidYMid slice"/>
  </g>
  <rect x="48" y="154" width="30" height="422" fill="#A33B26" opacity="0.28"/>
  
  <rect x="24" y="609.5" width="504" height="120.5" fill="#D8CEBE" opacity="0.5"/>
</g>

<!-- ============================================================ INK -->
<g id="ink" fill="#1A1714">
  <!-- timber-and-iron frame, rivets at the corners -->
  <g fill="none" stroke="#1A1714">
    <rect x="32" y="32" width="488" height="688" stroke-width="4"/>
    <rect x="40" y="40" width="472" height="672" stroke-width="1.2"/>
  </g>
  <g>
    <circle cx="39" cy="39" r="3.6"/><circle cx="513" cy="39" r="3.6"/>
    <circle cx="39" cy="713" r="3.6"/><circle cx="513" cy="713" r="3.6"/>
  </g>

  <!-- name and card code, maker's-mark small -->
  <text x="48" y="80" font-size="31" font-weight="bold">Doctor Elspeth Marrow</text>
  <text x="504" y="60" font-size="15" text-anchor="end" letter-spacing="2" font-family="Helvetica, Arial, sans-serif">CHR-06</text>
  <text x="48" y="102" font-size="15.5" font-style="italic" fill="#3D3630">Humans · Physician</text>
  

  <!-- portrait window rule: the wash bleeds, the ink holds the line -->
  <rect x="88" y="128" width="376" height="368" fill="none" stroke="#1A1714" stroke-width="2.4"/>

  <rect x="48" y="154" width="30" height="422" fill="none" stroke="#1A1714" stroke-width="2"/><path d="M 48,529.11 H 78" stroke="#1A1714" stroke-width="1.1"/><path d="M 47,548.56 l 5,4 l -5,4" fill="none" stroke="#1A1714" stroke-width="1.4"/><path d="M 48,482.22 H 78" stroke="#1A1714" stroke-width="1.1"/><path d="M 47,501.67 l 5,4 l -5,4" fill="none" stroke="#1A1714" stroke-width="1.4"/><path d="M 48,435.33 H 78" stroke="#1A1714" stroke-width="1.1"/><path d="M 47,454.78 l 5,4 l -5,4" fill="none" stroke="#1A1714" stroke-width="1.4"/><path d="M 48,388.44 H 78" stroke="#1A1714" stroke-width="1.1"/><path d="M 47,407.89 l 5,4 l -5,4" fill="none" stroke="#1A1714" stroke-width="1.4"/><path d="M 48,341.56 H 78" stroke="#1A1714" stroke-width="1.1"/><path d="M 47,361 l 5,4 l -5,4" fill="none" stroke="#1A1714" stroke-width="1.4"/><path d="M 48,294.67 H 78" stroke="#1A1714" stroke-width="1.1"/><path d="M 47,314.11 l 5,4 l -5,4" fill="none" stroke="#1A1714" stroke-width="1.4"/><path d="M 48,247.78 H 78" stroke="#1A1714" stroke-width="1.1"/><path d="M 47,267.22 l 5,4 l -5,4" fill="none" stroke="#1A1714" stroke-width="1.4"/><path d="M 48,200.89 H 78" stroke="#1A1714" stroke-width="1.1"/><path d="M 47,220.33 l 5,4 l -5,4" fill="none" stroke="#1A1714" stroke-width="1.4"/><path d="M 47,173.44 l 5,4 l -5,4" fill="none" stroke="#1A1714" stroke-width="1.4"/><g fill="#1A1714"><text x="66" y="557.06" font-size="13.5" text-anchor="middle" font-family="Helvetica, Arial, sans-serif">1</text><text x="66" y="510.17" font-size="13.5" text-anchor="middle" font-family="Helvetica, Arial, sans-serif">2</text><text x="66" y="463.28" font-size="13.5" text-anchor="middle" font-family="Helvetica, Arial, sans-serif">3</text><text x="66" y="416.39" font-size="13.5" text-anchor="middle" font-family="Helvetica, Arial, sans-serif">4</text><text x="66" y="369.5" font-size="13.5" text-anchor="middle" font-family="Helvetica, Arial, sans-serif">5</text><text x="66" y="322.61" font-size="13.5" text-anchor="middle" font-family="Helvetica, Arial, sans-serif">6</text><text x="66" y="275.72" font-size="13.5" text-anchor="middle" font-family="Helvetica, Arial, sans-serif">7</text><text x="66" y="228.83" font-size="13.5" text-anchor="middle" font-family="Helvetica, Arial, sans-serif">8</text><text x="66" y="181.94" font-size="13.5" text-anchor="middle" font-family="Helvetica, Arial, sans-serif">9</text></g><text x="63" y="146" font-size="10" text-anchor="middle" letter-spacing="1.1" font-family="Helvetica, Arial, sans-serif" fill="#5F564C">HEALTH</text>

  <!-- the card's working text -->
  <g font-size="18">
    <text x="90" y="522" font-size="18" >Physician: once per round, cure one illness</text>
    <text x="90" y="544" font-size="18" >marker or restore 2 health, anywhere she</text>
    <text x="90" y="566" font-size="18" >stands - no infirmary needed.</text>
    <text x="90" y="588" font-size="18" >Her party ignores Camp Fever.</text>
  </g>
  <path d="M 48,613.5 H 504" stroke="#1A1714" stroke-width="1.2"/>
  <g font-style="italic" fill="#3D3630">
    <text x="50" y="635.5" font-size="16.5" >Trained at the Saltreach college, thrown out of it over a</text>
    <text x="50" y="655" font-size="16.5" >disagreement about leeches - she was against them. Her bag</text>
    <text x="50" y="674.5" font-size="16.5" >is oiled leather; her ledger lists every patient, and the</text>
    <text x="50" y="694" font-size="16.5" >margins list every fee still owed.</text>
  </g>
</g>

<!-- ============================================================ GRIME -->
<g id="grime">
  <path d="M 0,0 H 92 Q 38,40 0,86 Z" fill="#1A1714" opacity="0.028"/>
  <path d="M 552,752 H 468 Q 516,718 552,676 Z" fill="#1A1714" opacity="0.025"/>
  <g fill="#1A1714" opacity="0.055">
    <circle cx="150" cy="700" r="1.4"/><circle cx="420" cy="112" r="1.2"/><circle cx="500" cy="470" r="1.3"/>
  </g>
  <circle cx="470" cy="676" r="26" fill="none" stroke="#D9CBAF" stroke-width="4" opacity="0.5"/>
</g>
</svg>
