<svg xmlns="http://www.w3.org/2000/svg" viewBox="0 0 552 752" width="552" height="752" font-family="Georgia, 'Iowan Old Style', 'Times New Roman', serif">
<title>Ruk of the Red Road — CHR-05</title>
<desc>Character card: Ruk of the Red Road, Caravan Guard. Health up the left edge, 28kg of burden up the right. Generated by tools/build-cards.mjs from data/*.json — do not edit. 63x88mm at 8 units/mm, 3mm bleed. The portrait is cropped on the plate's subject, from docs/art/framing.json. The ink plate alone is the black-and-white edition.</desc>
<defs>
  <clipPath id="portrait-window"><rect x="88" y="128" width="376" height="368"/></clipPath>
</defs>

<!-- ============================================================ WASH -->
<g id="wash">
  <rect x="0" y="0" width="552" height="752" fill="#EDE4D1"/>
  <g clip-path="url(#portrait-window)">
    <image href="../art/renders/character-chr-05.png" x="60" y="84.54" width="423.53" height="598.57" preserveAspectRatio="xMidYMid slice"/>
  </g>
  <rect x="48" y="154" width="30" height="422" fill="#A33B26" opacity="0.28"/>
  <rect x="474" y="154" width="30" height="422" fill="#3C5A6E" opacity="0.28"/>
  
  <rect x="24" y="609.5" width="504" height="120.5" fill="#D8CEBE" opacity="0.5"/>
</g>

<!-- ============================================================ INK -->
<g id="ink" fill="#1A1714">
  <!-- timber-and-iron frame, rivets at the corners. Both rules follow the card's
       own corner radius, one inside the other, or the frame reads as a square
       box floating in a rounded card. -->
  <g fill="none" stroke="#1A1714">
    <rect x="32" y="32" width="488" height="688" rx="20" stroke-width="4"/>
    <rect x="40" y="40" width="472" height="672" rx="12" stroke-width="1.2"/>
  </g>
  <g><circle cx="47.4" cy="47.4" r="3.6"/><circle cx="504.6" cy="47.4" r="3.6"/><circle cx="47.4" cy="704.6" r="3.6"/><circle cx="504.6" cy="704.6" r="3.6"/></g>

  <!-- name and card code, maker's-mark small -->
  <text x="48" y="80" font-size="31" font-weight="bold">Ruk of the Red Road</text>
  <text x="504" y="60" font-size="15" text-anchor="end" letter-spacing="2" font-family="Helvetica, Arial, sans-serif">CHR-05</text>
  <text x="48" y="102" font-size="15.5" font-style="italic" fill="#3D3630">Orcs · Caravan Guard</text>
  

  <!-- portrait window rule: the wash bleeds, the ink holds the line -->
  <rect x="88" y="128" width="376" height="368" fill="none" stroke="#1A1714" stroke-width="2.4"/>

  <rect x="48" y="154" width="30" height="422" fill="none" stroke="#1A1714" stroke-width="2"/><path d="M 48,543.54 H 78" stroke="#1A1714" stroke-width="1.1"/><path d="M 47,555.77 l 5,4 l -5,4" fill="none" stroke="#1A1714" stroke-width="1.4"/><path d="M 48,511.08 H 78" stroke="#1A1714" stroke-width="1.1"/><path d="M 47,523.31 l 5,4 l -5,4" fill="none" stroke="#1A1714" stroke-width="1.4"/><path d="M 48,478.62 H 78" stroke="#1A1714" stroke-width="1.1"/><path d="M 47,490.85 l 5,4 l -5,4" fill="none" stroke="#1A1714" stroke-width="1.4"/><path d="M 48,446.15 H 78" stroke="#1A1714" stroke-width="1.1"/><path d="M 47,458.38 l 5,4 l -5,4" fill="none" stroke="#1A1714" stroke-width="1.4"/><path d="M 48,413.69 H 78" stroke="#1A1714" stroke-width="1.1"/><path d="M 47,425.92 l 5,4 l -5,4" fill="none" stroke="#1A1714" stroke-width="1.4"/><path d="M 48,381.23 H 78" stroke="#1A1714" stroke-width="1.1"/><path d="M 47,393.46 l 5,4 l -5,4" fill="none" stroke="#1A1714" stroke-width="1.4"/><path d="M 48,348.77 H 78" stroke="#1A1714" stroke-width="1.1"/><path d="M 47,361 l 5,4 l -5,4" fill="none" stroke="#1A1714" stroke-width="1.4"/><path d="M 48,316.31 H 78" stroke="#1A1714" stroke-width="1.1"/><path d="M 47,328.54 l 5,4 l -5,4" fill="none" stroke="#1A1714" stroke-width="1.4"/><path d="M 48,283.85 H 78" stroke="#1A1714" stroke-width="1.1"/><path d="M 47,296.08 l 5,4 l -5,4" fill="none" stroke="#1A1714" stroke-width="1.4"/><path d="M 48,251.38 H 78" stroke="#1A1714" stroke-width="1.1"/><path d="M 47,263.62 l 5,4 l -5,4" fill="none" stroke="#1A1714" stroke-width="1.4"/><path d="M 48,218.92 H 78" stroke="#1A1714" stroke-width="1.1"/><path d="M 47,231.15 l 5,4 l -5,4" fill="none" stroke="#1A1714" stroke-width="1.4"/><path d="M 48,186.46 H 78" stroke="#1A1714" stroke-width="1.1"/><path d="M 47,198.69 l 5,4 l -5,4" fill="none" stroke="#1A1714" stroke-width="1.4"/><path d="M 47,166.23 l 5,4 l -5,4" fill="none" stroke="#1A1714" stroke-width="1.4"/><g fill="#1A1714"><text x="66" y="564.27" font-size="13.5" text-anchor="middle" font-family="Helvetica, Arial, sans-serif">1</text><text x="66" y="531.81" font-size="13.5" text-anchor="middle" font-family="Helvetica, Arial, sans-serif">2</text><text x="66" y="499.35" font-size="13.5" text-anchor="middle" font-family="Helvetica, Arial, sans-serif">3</text><text x="66" y="466.88" font-size="13.5" text-anchor="middle" font-family="Helvetica, Arial, sans-serif">4</text><text x="66" y="434.42" font-size="13.5" text-anchor="middle" font-family="Helvetica, Arial, sans-serif">5</text><text x="66" y="401.96" font-size="13.5" text-anchor="middle" font-family="Helvetica, Arial, sans-serif">6</text><text x="66" y="369.5" font-size="13.5" text-anchor="middle" font-family="Helvetica, Arial, sans-serif">7</text><text x="66" y="337.04" font-size="13.5" text-anchor="middle" font-family="Helvetica, Arial, sans-serif">8</text><text x="66" y="304.58" font-size="13.5" text-anchor="middle" font-family="Helvetica, Arial, sans-serif">9</text><text x="66" y="272.12" font-size="13.5" text-anchor="middle" font-family="Helvetica, Arial, sans-serif">10</text><text x="66" y="239.65" font-size="13.5" text-anchor="middle" font-family="Helvetica, Arial, sans-serif">11</text><text x="66" y="207.19" font-size="13.5" text-anchor="middle" font-family="Helvetica, Arial, sans-serif">12</text><text x="66" y="174.73" font-size="13.5" text-anchor="middle" font-family="Helvetica, Arial, sans-serif">13</text></g><text x="63" y="146" font-size="10" text-anchor="middle" letter-spacing="1.1" font-family="Helvetica, Arial, sans-serif" fill="#5F564C">HEALTH</text>
  <rect x="474" y="154" width="30" height="422" fill="none" stroke="#1A1714" stroke-width="2"/><path d="M 474,545.86 H 504" stroke="#1A1714" stroke-width="1.1"/><path d="M 474,515.71 H 504" stroke="#1A1714" stroke-width="1.1"/><path d="M 474,485.57 H 504" stroke="#1A1714" stroke-width="1.1"/><path d="M 474,455.43 H 504" stroke="#1A1714" stroke-width="1.1"/><path d="M 474,425.29 H 504" stroke="#1A1714" stroke-width="1.1"/><path d="M 474,395.14 H 504" stroke="#1A1714" stroke-width="1.1"/><path d="M 474,365 H 504" stroke="#1A1714" stroke-width="1.1"/><path d="M 474,334.86 H 504" stroke="#1A1714" stroke-width="1.1"/><path d="M 474,304.71 H 504" stroke="#1A1714" stroke-width="1.1"/><path d="M 474,274.57 H 504" stroke="#1A1714" stroke-width="1.1"/><path d="M 474,244.43 H 504" stroke="#1A1714" stroke-width="1.1"/><path d="M 474,214.29 H 504" stroke="#1A1714" stroke-width="1.1"/><path d="M 474,184.14 H 504" stroke="#1A1714" stroke-width="1.1"/><g fill="#1A1714"><text x="489" y="565.43" font-size="13.5" text-anchor="middle" font-family="Helvetica, Arial, sans-serif">2</text><text x="489" y="535.29" font-size="13.5" text-anchor="middle" font-family="Helvetica, Arial, sans-serif">4</text><text x="489" y="505.14" font-size="13.5" text-anchor="middle" font-family="Helvetica, Arial, sans-serif">6</text><text x="489" y="475" font-size="13.5" text-anchor="middle" font-family="Helvetica, Arial, sans-serif">8</text><text x="489" y="444.86" font-size="13.5" text-anchor="middle" font-family="Helvetica, Arial, sans-serif">10</text><text x="489" y="414.71" font-size="13.5" text-anchor="middle" font-family="Helvetica, Arial, sans-serif">12</text><text x="489" y="384.57" font-size="13.5" text-anchor="middle" font-family="Helvetica, Arial, sans-serif">14</text><text x="489" y="354.43" font-size="13.5" text-anchor="middle" font-family="Helvetica, Arial, sans-serif">16</text><text x="489" y="324.29" font-size="13.5" text-anchor="middle" font-family="Helvetica, Arial, sans-serif">18</text><text x="489" y="294.14" font-size="13.5" text-anchor="middle" font-family="Helvetica, Arial, sans-serif">20</text><text x="489" y="264" font-size="13.5" text-anchor="middle" font-family="Helvetica, Arial, sans-serif">22</text><text x="489" y="233.86" font-size="13.5" text-anchor="middle" font-family="Helvetica, Arial, sans-serif">24</text><text x="489" y="203.71" font-size="13.5" text-anchor="middle" font-family="Helvetica, Arial, sans-serif">26</text><text x="489" y="173.57" font-size="13.5" text-anchor="middle" font-family="Helvetica, Arial, sans-serif">28</text></g><text x="489" y="134" font-size="10" text-anchor="middle" letter-spacing="1.1" font-family="Helvetica, Arial, sans-serif" fill="#5F564C">BURDEN</text><text x="489" y="146" font-size="9" text-anchor="middle" letter-spacing="1.1" font-family="Helvetica, Arial, sans-serif" fill="#5F564C">kg</text>

  <!-- the card's working text -->
  <g font-size="18">
    <text x="90" y="522" font-size="18" >Scarred Escort: bandits never demand a toll</text>
    <text x="90" y="544" font-size="18" >of Ruk's party - they fight, or they leave.</text>
    <text x="90" y="566" font-size="18" >+1 combat die in any battle protecting</text>
    <text x="90" y="588" font-size="18" >cargo.</text>
  </g>
  <path d="M 48,613.5 H 504" stroke="#1A1714" stroke-width="1.2"/>
  <g font-style="italic" fill="#3D3630">
    <text x="50" y="635.5" font-size="16.5" >Ruk guarded the Kholvar crossing for twenty years and the</text>
    <text x="50" y="655" font-size="16.5" >scars are a map of every ambush that failed. The axe is</text>
    <text x="50" y="674.5" font-size="16.5" >for emphasis. Mostly.</text>
  </g>
</g>

<!-- ============================================================ GRIME -->
<g id="grime">
  <g fill="none" stroke="#1A1714" stroke-width="1" opacity="0.32"><path d="M 18,52 A 34,34 0 0 1 52,18"/><path d="M 500,18 A 34,34 0 0 1 534,52"/><path d="M 534,700 A 34,34 0 0 1 500,734"/><path d="M 52,734 A 34,34 0 0 1 18,700"/></g>
  <path d="M 0,0 H 92 Q 38,40 0,86 Z" fill="#1A1714" opacity="0.028"/>
  <path d="M 552,752 H 468 Q 516,718 552,676 Z" fill="#1A1714" opacity="0.025"/>
  <g fill="#1A1714" opacity="0.055">
    <circle cx="150" cy="700" r="1.4"/><circle cx="420" cy="112" r="1.2"/><circle cx="500" cy="470" r="1.3"/>
  </g>
  <circle cx="470" cy="676" r="26" fill="none" stroke="#D9CBAF" stroke-width="4" opacity="0.5"/>
</g>
</svg>
