<svg xmlns="http://www.w3.org/2000/svg" viewBox="0 0 552 752" width="552" height="752" font-family="Georgia, 'Iowan Old Style', 'Times New Roman', serif">
<title>The Deepwater Maw — unique — MON-09</title>
<desc>Monster card: The Deepwater Maw, water. Generated by tools/build-cards.mjs from data/*.json — do not edit. 63x88mm at 8 units/mm, 3mm bleed. The ink plate alone is the black-and-white edition.</desc>

<!-- ============================================================ WASH -->
<g id="wash">
  <rect x="0" y="0" width="552" height="752" fill="#EDE4D1"/>
  <image href="../art/renders/monster-deepwater-maw.png" x="88" y="132" width="376" height="290" preserveAspectRatio="xMidYMid slice"/>
  <rect x="48" y="158" width="30" height="418" fill="#A33B26" opacity="0.28"/>
  <circle cx="64" cy="66" r="13" fill="#3C5A6E" opacity="0.55"/>
  <rect x="24" y="596" width="504" height="108" fill="#D8CEBE" opacity="0.5"/>
</g>

<!-- ============================================================ INK -->
<g id="ink" fill="#1A1714">
  <!-- timber-and-iron frame, rivets at the corners -->
  <g fill="none" stroke="#1A1714">
    <rect x="32" y="32" width="488" height="688" stroke-width="4"/>
    <rect x="40" y="40" width="472" height="672" stroke-width="1.2"/>
  </g>
  <g>
    <circle cx="39" cy="39" r="3.6"/><circle cx="513" cy="39" r="3.6"/>
    <circle cx="39" cy="713" r="3.6"/><circle cx="513" cy="713" r="3.6"/>
  </g>

  <!-- name and card code, maker's-mark small -->
  <text x="48" y="100" font-size="26" font-weight="bold">The Deepwater Maw — unique</text>
  <text x="504" y="58" font-size="13" text-anchor="end" letter-spacing="2" font-family="Helvetica, Arial, sans-serif">MON-09</text>
  <text x="48" y="120" font-size="12.5" font-style="italic" fill="#3D3630">strength 5 · yields 4 water mana · deep-water</text>
  <circle cx="64" cy="66" r="13" fill="none" stroke="#1A1714" stroke-width="2"/><text x="86" y="71" font-size="13" letter-spacing="1.5" font-family="Helvetica, Arial, sans-serif" fill="#3D3630">WATER</text>

  <!-- portrait window rule: the wash bleeds, the ink holds the line -->
  <rect x="88" y="132" width="376" height="290" fill="none" stroke="#1A1714" stroke-width="2.4"/>

  <rect x="48" y="158" width="30" height="418" fill="none" stroke="#1A1714" stroke-width="2"/><path d="M 48,541.1666666666666 H 78" stroke="#1A1714" stroke-width="1.1"/><path d="M 47,554.5833333333333 l 5,4 l -5,4" fill="none" stroke="#1A1714" stroke-width="1.4"/><path d="M 48,506.3333333333333 H 78" stroke="#1A1714" stroke-width="1.1"/><path d="M 47,519.75 l 5,4 l -5,4" fill="none" stroke="#1A1714" stroke-width="1.4"/><path d="M 48,471.5 H 78" stroke="#1A1714" stroke-width="1.1"/><path d="M 47,484.9166666666667 l 5,4 l -5,4" fill="none" stroke="#1A1714" stroke-width="1.4"/><path d="M 48,436.66666666666663 H 78" stroke="#1A1714" stroke-width="1.1"/><path d="M 47,450.0833333333333 l 5,4 l -5,4" fill="none" stroke="#1A1714" stroke-width="1.4"/><path d="M 48,401.8333333333333 H 78" stroke="#1A1714" stroke-width="1.1"/><path d="M 47,415.25 l 5,4 l -5,4" fill="none" stroke="#1A1714" stroke-width="1.4"/><path d="M 48,367 H 78" stroke="#1A1714" stroke-width="1.1"/><path d="M 47,380.4166666666667 l 5,4 l -5,4" fill="none" stroke="#1A1714" stroke-width="1.4"/><path d="M 48,332.16666666666663 H 78" stroke="#1A1714" stroke-width="1.1"/><path d="M 47,345.5833333333333 l 5,4 l -5,4" fill="none" stroke="#1A1714" stroke-width="1.4"/><path d="M 48,297.3333333333333 H 78" stroke="#1A1714" stroke-width="1.1"/><path d="M 47,310.75 l 5,4 l -5,4" fill="none" stroke="#1A1714" stroke-width="1.4"/><path d="M 48,262.5 H 78" stroke="#1A1714" stroke-width="1.1"/><path d="M 47,275.9166666666667 l 5,4 l -5,4" fill="none" stroke="#1A1714" stroke-width="1.4"/><path d="M 48,227.66666666666663 H 78" stroke="#1A1714" stroke-width="1.1"/><path d="M 47,241.0833333333333 l 5,4 l -5,4" fill="none" stroke="#1A1714" stroke-width="1.4"/><path d="M 48,192.83333333333331 H 78" stroke="#1A1714" stroke-width="1.1"/><path d="M 47,206.24999999999997 l 5,4 l -5,4" fill="none" stroke="#1A1714" stroke-width="1.4"/><path d="M 47,171.41666666666666 l 5,4 l -5,4" fill="none" stroke="#1A1714" stroke-width="1.4"/><g fill="#1A1714"><text x="66" y="562.5833333333334" font-size="12.5" text-anchor="middle" font-family="Helvetica, Arial, sans-serif">1</text><text x="66" y="527.75" font-size="12.5" text-anchor="middle" font-family="Helvetica, Arial, sans-serif">2</text><text x="66" y="492.91666666666663" font-size="12.5" text-anchor="middle" font-family="Helvetica, Arial, sans-serif">3</text><text x="66" y="458.0833333333333" font-size="12.5" text-anchor="middle" font-family="Helvetica, Arial, sans-serif">4</text><text x="66" y="423.25" font-size="12.5" text-anchor="middle" font-family="Helvetica, Arial, sans-serif">5</text><text x="66" y="388.41666666666663" font-size="12.5" text-anchor="middle" font-family="Helvetica, Arial, sans-serif">6</text><text x="66" y="353.5833333333333" font-size="12.5" text-anchor="middle" font-family="Helvetica, Arial, sans-serif">7</text><text x="66" y="318.75" font-size="12.5" text-anchor="middle" font-family="Helvetica, Arial, sans-serif">8</text><text x="66" y="283.91666666666663" font-size="12.5" text-anchor="middle" font-family="Helvetica, Arial, sans-serif">9</text><text x="66" y="249.08333333333331" font-size="12.5" text-anchor="middle" font-family="Helvetica, Arial, sans-serif">10</text><text x="66" y="214.25" font-size="12.5" text-anchor="middle" font-family="Helvetica, Arial, sans-serif">11</text><text x="66" y="179.41666666666663" font-size="12.5" text-anchor="middle" font-family="Helvetica, Arial, sans-serif">12</text></g><text x="63" y="150" font-size="9" text-anchor="middle" letter-spacing="1.1" font-family="Helvetica, Arial, sans-serif" fill="#5F564C">HEALTH</text>

  <!-- the card's working text -->
  <g font-size="13.5">
    <text x="90" y="446" font-size="13.5" >Options: Slay.</text>
  </g>
  <path d="M 48,600 H 504" stroke="#1A1714" stroke-width="1.2"/>
  <g font-style="italic" fill="#3D3630">
    <text x="50" y="622" font-size="12.5" >There is one, it is old, and every drowned bell and</text>
    <text x="50" y="638.5" font-size="12.5" >broken keel in the gulf is somewhere in it. Ships that</text>
    <text x="50" y="655" font-size="12.5" >sight it log a heading and a prayer. It is the end of</text>
    <text x="50" y="671.5" font-size="12.5" >one campaign and the reason harbour insurance exists.</text>
  </g>
</g>

<!-- ============================================================ GRIME -->
<g id="grime">
  <path d="M 0,0 H 92 Q 38,40 0,86 Z" fill="#1A1714" opacity="0.028"/>
  <path d="M 552,752 H 468 Q 516,718 552,676 Z" fill="#1A1714" opacity="0.025"/>
  <g fill="#1A1714" opacity="0.055">
    <circle cx="150" cy="700" r="1.4"/><circle cx="420" cy="112" r="1.2"/><circle cx="500" cy="470" r="1.3"/>
  </g>
  <circle cx="470" cy="676" r="26" fill="none" stroke="#D9CBAF" stroke-width="4" opacity="0.5"/>
</g>
</svg>
